<svg version="1.2" xmlns="http://www.w3.org/2000/svg" viewBox="0 0 1612 1336" width="1612" height="1336">
	<title>Logo Creator (Community)-pdf</title>
	<defs>
		<clipPath clipPathUnits="userSpaceOnUse" id="cp1">
			<path d="m0 0h1612v1336h-1612z"/>
		</clipPath>
	</defs>
	<style>
		.s0 { opacity: .1;fill: #ffffff } 
		.s1 { opacity: 0;fill: #ffffff } 
		.s2 { fill: #f0aa65 } 
		.s3 { fill: #648da4 } 
		.s4 { fill: #8fa777 } 
		.s5 { fill: #d2d396 } 
	</style>
	<g id="Page 1" clip-path="url(#cp1)">
		<path id="Path 1" class="s0" d="m0 1336h1612v-1336h-1612z"/>
		<path id="Path 2" class="s1" d="m1406 624.9l-663.1-536.9-536.9 663.1 663.1 536.9z"/>
		<path id="Path 3" fill-rule="evenodd" class="s2" d="m852.1 717.9c5.3 4.1 9.4 9.4 12 15.6l14.1 36.6c2 6.3 2.5 13.1 1.5 19.6-1.1 6.6-3.7 12.8-7.6 18.2l-24.5 30.4c-4.5 4.9-10.1 8.7-16.3 11.1-6.2 2.4-12.9 3.3-19.5 2.6l-38.7-6.1c-6.6-1.3-12.7-4.2-17.8-8.5-5.2-4.1-9.4-9.5-12-15.6l-14.1-36.7c-2-6.3-2.6-13-1.5-19.6 1-6.6 3.6-12.8 7.5-18.2l24.6-30.3c4.5-5 10-8.8 16.2-11.2 6.2-2.4 12.9-3.3 19.5-2.6l38.9 6c6.6 1.2 12.7 4.2 17.9 8.5zm-20.2 6.7l-38.7-6.1c-3.9-0.3-7.8 0.3-11.5 1.7-3.6 1.4-6.9 3.6-9.7 6.4l-24.6 30.4c-2.1 3.2-3.6 6.9-4.2 10.8-0.6 3.9-0.4 7.8 0.7 11.6l14 36.6c1.7 3.6 4.2 6.7 7.4 9.1 2.9 2.5 6.5 4.3 10.3 5.2l38.7 6.2c3.9 0.2 7.9-0.4 11.5-1.8 3.7-1.4 7-3.6 9.7-6.4l24.6-30.4c2.2-3.2 3.6-6.9 4.2-10.8 0.7-3.8 0.4-7.8-0.6-11.6l-14.1-36.6c-1.6-3.6-4.1-6.7-7.2-9.1-3-2.5-6.6-4.3-10.5-5.2z"/>
		<path id="Path 4" fill-rule="evenodd" class="s3" d="m975.8 818c5.3 4.2 9.4 9.5 12.1 15.7l14 36.6c2 6.3 2.5 13 1.5 19.6-1 6.6-3.6 12.8-7.5 18.3l-24.6 30.3c-4.5 4.9-10 8.7-16.3 11.1-6.2 2.4-12.9 3.3-19.5 2.6l-38.7-6.1c-6.5-1.3-12.7-4.2-17.8-8.6-5.2-4-9.4-9.4-12-15.5l-14-36.6c-2.1-6.4-2.6-13.1-1.6-19.7 1.1-6.6 3.6-12.8 7.5-18.2l24.6-30.4c4.5-4.9 10-8.7 16.3-11.1 6.2-2.4 12.9-3.3 19.5-2.6l38.9 6c6.5 1.2 12.7 4.2 17.8 8.4zm-20.1 6.8l-38.7-6.1c-3.9-0.3-7.9 0.3-11.5 1.7-3.7 1.4-7 3.6-9.8 6.4l-24.6 30.3c-2.1 3.3-3.6 7-4.2 10.9-0.6 3.9-0.3 7.8 0.7 11.6l14.1 36.6c1.6 3.6 4.1 6.7 7.3 9 2.9 2.6 6.5 4.4 10.4 5.3l38.6 6.1c4 0.3 7.9-0.3 11.5-1.7 3.7-1.4 7-3.6 9.8-6.4l24.6-30.3c2.1-3.3 3.6-7 4.2-10.9 0.6-3.9 0.4-7.8-0.7-11.6l-14-36.6c-1.7-3.6-4.2-6.7-7.3-9.1-3-2.6-6.5-4.3-10.4-5.2z"/>
		<path id="Path 5" fill-rule="evenodd" class="s4" d="m702.9 775.7c5.3 4.1 9.4 9.5 12.1 15.6l13.9 36.7c2 6.4 2.5 13.1 1.5 19.7-1.1 6.6-3.6 12.8-7.5 18.2l-24.6 30.4c-4.5 4.9-10.1 8.7-16.3 11.1-6.2 2.4-12.9 3.3-19.5 2.6l-38.7-6.1c-6.6-1.3-12.7-4.3-17.8-8.6-5.3-4.1-9.4-9.4-12-15.5l-14.1-36.7c-2-6.3-2.5-13-1.5-19.6 1.1-6.6 3.6-12.8 7.5-18.2l24.6-30.3c4.5-5 10-8.8 16.3-11.2 6.2-2.4 12.9-3.3 19.5-2.7l38.8 6.2c6.5 1.3 12.6 4.2 17.7 8.5zm-10 12.3c-2.9-2.6-6.5-4.4-10.3-5.2l-38.8-6.2c-3.9-0.2-7.8 0.4-11.5 1.8-3.6 1.4-6.9 3.6-9.7 6.4l-24.5 30.4c-2.2 3.2-3.6 6.9-4.2 10.8-0.7 3.9-0.4 7.8 0.6 11.6l14.1 36.6c1.7 3.5 4.2 6.6 7.3 9 3 2.5 6.5 4.3 10.3 5.3l38.9 6c3.9 0.3 7.8-0.4 11.4-1.8 3.7-1.4 7-3.5 9.7-6.3l24.6-30.4c2.2-3.2 3.6-6.9 4.3-10.8 0.6-3.9 0.4-7.8-0.7-11.6l-14.1-36.6c-1.6-3.6-4.1-6.8-7.3-9.2z"/>
		<path id="Path 6" fill-rule="evenodd" class="s5" d="m838.6 891.4l14.1 36.6c2 6.4 2.5 13.1 1.5 19.7-1.1 6.6-3.6 12.9-7.5 18.3l-24.6 30.3c-4.5 5-10.1 8.8-16.3 11.1-6.2 2.4-12.9 3.3-19.5 2.6l-38.8-6.1c-6.5-1.3-12.6-4.2-17.7-8.5-5.3-4.1-9.4-9.5-12.1-15.6l-14-36.6c-2-6.3-2.5-13.1-1.5-19.7 1-6.5 3.6-12.8 7.5-18.2l24.5-30.3c4.5-5 10.1-8.8 16.3-11.2 6.3-2.4 13-3.3 19.6-2.6l38.7 6.1c6.6 1.3 12.7 4.2 17.8 8.6 5.2 4 9.4 9.4 12 15.5zm-32.3-8.6l-38.7-6.1c-3.9-0.3-7.8 0.3-11.5 1.7-3.7 1.4-7 3.6-9.7 6.4l-24.6 30.3c-2.2 3.3-3.6 7-4.2 10.9-0.6 3.9-0.4 7.8 0.7 11.6l14 36.6c1.7 3.5 4.2 6.6 7.3 9 3 2.6 6.5 4.4 10.4 5.3l38.7 6.1c3.9 0.3 7.8-0.3 11.5-1.7 3.7-1.4 7-3.6 9.7-6.4l24.6-30.3c2.2-3.3 3.7-7 4.3-10.9 0.6-3.9 0.3-7.8-0.8-11.6l-14-36.6c-1.6-3.6-4.1-6.7-7.3-9.1-2.9-2.6-6.5-4.4-10.4-5.2zm71.7-323.3c5.2 4.1 9.4 9.5 12 15.7l13.7 37c2 6.3 2.5 13 1.4 19.6-1 6.6-3.6 12.8-7.5 18.2l-24.5 30.3c-4.5 5-10.1 8.8-16.3 11.2-6.2 2.4-12.9 3.3-19.5 2.6l-38.7-6.2c-6.6-1.3-12.7-4.2-17.8-8.5-5.3-4.1-9.4-9.5-12-15.6l-14.1-36.6c-2-6.3-2.6-13.1-1.5-19.6 1-6.6 3.6-12.8 7.5-18.2l24.6-30.4c4.4-4.9 10-8.7 16.2-11.1 6.2-2.4 12.9-3.3 19.5-2.6l38.8 6.1c6.5 1.3 12.6 4.2 17.8 8.5zm-10.3 12.5c-3-2.6-6.5-4.4-10.4-5.2l-38.7-6.2c-3.9-0.2-7.8 0.4-11.5 1.8-3.6 1.4-7 3.6-9.7 6.4l-24.6 30.4c-2.1 3.2-3.6 6.9-4.2 10.8-0.6 3.9-0.4 7.8 0.7 11.6l14.3 36.3c1.8 3.5 4.3 6.6 7.3 9.1 3.1 2.4 6.6 4.2 10.4 5.3l38.8 5.9c3.9 0.3 7.8-0.3 11.4-1.8 3.7-1.4 7-3.5 9.8-6.3l24.5-30.4c2.2-3.2 3.7-6.9 4.3-10.8 0.6-3.9 0.4-7.8-0.7-11.6l-14-36.6c-1.7-3.6-4.2-6.8-7.3-9.1z"/>
		<path id="Path 7" fill-rule="evenodd" class="s4" d="m1013.3 675.7l14.1 36.6c2 6.4 2.5 13.1 1.5 19.7-1.1 6.6-3.6 12.8-7.5 18.2l-24.6 30.4c-4.5 4.9-10 8.7-16.3 11.1-6.2 2.4-12.9 3.2-19.5 2.6l-38.7-6.2c-6.6-1.3-12.7-4.2-17.8-8.5-5.3-4.1-9.4-9.5-12-15.6l-14.1-36.6c-2-6.3-2.5-13.1-1.5-19.6 1.1-6.6 3.6-12.9 7.5-18.3l24.6-30.3c4.5-4.9 10-8.8 16.3-11.1 6.2-2.4 12.9-3.3 19.5-2.6l38.7 6.1c6.6 1.3 12.7 4.2 17.8 8.5 5.3 4.1 9.4 9.5 12 15.6zm-21.8-3.5c-3-2.6-6.6-4.3-10.4-5.2l-38.7-6.1c-3.9-0.3-7.9 0.3-11.6 1.7-3.6 1.4-6.9 3.6-9.7 6.4l-24.6 30.4c-2.1 3.2-3.6 6.9-4.2 10.8-0.6 3.9-0.3 7.9 0.7 11.6l14.4 36.2c1.6 3.5 4.2 6.7 7.3 9 3 2.6 6.5 4.4 10.3 5.3l38.8 6.1c3.9 0.3 7.8-0.3 11.5-1.7 3.7-1.4 7-3.6 9.7-6.4l24.6-30.3c2.2-3.3 3.6-7 4.2-10.9 0.6-3.9 0.4-7.8-0.7-11.6l-14-36.6c-1.7-3.6-4.1-6.7-7.3-9.1z"/>
		<path id="Path 8" fill-rule="evenodd" class="s3" d="m728.4 617.6c5.2 4.2 9.4 9.5 12 15.7l14 36.6c2 6.3 2.6 13 1.5 19.6-1 6.6-3.6 12.9-7.5 18.3l-24.5 30.3c-4.5 4.9-10.1 8.7-16.3 11.1-6.2 2.4-12.9 3.3-19.6 2.6l-38.6-6.1c-6.6-1.3-12.7-4.2-17.8-8.6-5.3-4-9.4-9.4-12-15.5l-14.1-36.6c-2.1-6.4-2.6-13.1-1.5-19.7 1-6.6 3.6-12.8 7.4-18.2l24.6-30.4c4.5-4.9 10.1-8.7 16.3-11.1 6.2-2.4 12.9-3.3 19.5-2.6l38.9 6c6.6 1.2 12.7 4.2 17.8 8.5zm-20.1 6.7l-38.7-6.1c-3.9-0.3-7.8 0.3-11.5 1.7-3.7 1.4-7 3.6-9.7 6.4l-24.6 30.3c-2.2 3.3-3.6 7-4.2 10.9-0.7 3.9-0.4 7.8 0.7 11.6l14 36.6c1.7 3.6 4.2 6.7 7.3 9 3 2.6 6.5 4.4 10.4 5.3l38.7 6.1c3.9 0.3 7.8-0.3 11.5-1.7 3.7-1.4 7-3.6 9.7-6.4l24.6-30.3c2.2-3.3 3.6-7 4.2-10.9 0.6-3.9 0.4-7.8-0.7-11.6l-14-36.6c-1.6-3.6-4.1-6.7-7.3-9.1-2.9-2.6-6.5-4.3-10.4-5.2z"/>
		<path id="Path 9" fill-rule="evenodd" class="s2" d="m689.4 327.3q0 9.6-7.2 14.7-7 4.9-19.2 4.9h-8.7v29.7h-9.7v-66.7h21.6q10.2 0 16.6 4.7 6.6 4.6 6.6 12.7zm-35.1 16.7h9q4.7 0 8.1-1.8 3.4-1.9 4.9-4.7 2.7-5 2.7-9.7 0-2.4-1.2-5.6-2.4-6.6-10-8.6-7.2 0-13.5 1.7zm78 32.6l29.9-68.3h1.5l29.9 68.3h-11l-7.6-18.1h-29.9l-7.4 18.1zm14.4-22h26.8l-13.3-32.6zm171.4-44.7h5l-25 68.2h-1.6l-15.4-41.3-15.1 41.3h-1.6l-25.5-68.2h11l17.7 54.6 11.3-33.6-7.9-21h11l17.7 54.6zm-281.5 180.7l29.9-68.2h1.5l29.9 68.2h-10.9l-7.6-18.1h-29.9l-7.4 18.1zm14.4-21.9h26.7l-13.2-32.6zm102.2 21.9v-66.6h9.9v61.2q6.1 1.8 9.9 1.8l18.2-3.1-1.2 6.7zm94.3 0v-66.6h19.1q11.5 0 18.4 3.9 6.8 3.9 6.8 11.8 0 5.5-3.9 9.6-3.8 4.1-10.8 6.2 9.2 1.7 13.8 6.2 4.7 4.5 4.7 9.8 0 5.3-2.7 9.1-2.7 3.8-6.9 5.8-8.6 4.2-17.5 4.2zm9.7-36.1h7.3q9.1 0 13.1-4.1 4-4.1 4-10.2 0-4.1-2.8-7.5-2.7-3.4-8.5-5.1-6.8 0-13.1 2zm0 2.9v28.7q3.2 1 10 1 6.7 0 12-3.7 5.2-3.7 5.2-10.4 0-6.6-5.7-11-5.8-4.6-13.8-4.6zm109.6-33.4v66.6h-9.3v-66.6z"/>
	</g>
</svg>