<svg xmlns="http://www.w3.org/2000/svg" version="1.1" xmlns:xlink="http://www.w3.org/1999/xlink" xmlns:svgjs="http://svgjs.dev/svgjs" width="1000" height="1273" viewBox="0 0 1000 1273"><g transform="matrix(1,0,0,1,1.221461384357724,0.5153846153846189)"><svg viewBox="0 0 194 247" data-background-color="#006e60" preserveAspectRatio="xMidYMid meet" height="1273" width="1000" xmlns="http://www.w3.org/2000/svg" xmlns:xlink="http://www.w3.org/1999/xlink"><g id="tight-bounds" transform="matrix(1,0,0,1,-0.2369635085653954,-0.09999999999999432)"><svg viewBox="0 0 194.47392701713082 247.2" height="247.2" width="194.47392701713082"><g><svg viewBox="0 0 395.52 502.75399638218545" height="247.2" width="194.47392701713082"><g transform="matrix(1,0,0,1,0,378.49581850236103)"><svg viewBox="0 0 395.52 124.2581778798244" height="124.2581778798244" width="395.52"><g id="textblocktransform"><svg viewBox="0 0 395.52 124.2581778798244" height="124.2581778798244" width="395.52" id="textblock"><g><rect width="75.54432" height="7.274687514193424" y="108.34738801796374" fill="#f3fa3a" data-fill-palette-color="tertiary"></rect><rect width="75.54432" height="7.274687514193424" y="108.34738801796374" x="319.97568" fill="#f3fa3a" data-fill-palette-color="tertiary"></rect></g><g><svg viewBox="0 0 395.52 80.66760107816711" height="80.66760107816711" width="395.52"><g transform="matrix(1,0,0,1,0,0)"><svg width="395.52" viewBox="3.5 -33.75 165.38 34.05" height="80.66760107816711" data-palette-color="#f3fa3a"><g class="undefined-text-0" data-fill-palette-color="primary" id="text-0"><path d="M15.95-11.3Q14-11.3 12.68-11.43 11.35-11.55 9.2-11.85L9.2-11.85 9.15-6.6Q9.1-5.25 9.1-2.75L9.1-2.75Q9.1-1.45 8.38-0.73 7.65 0 6.75 0L6.75 0Q5.1 0 4.3-0.43 3.5-0.85 3.5-1.95L3.5-1.95Q3.5-3.4 3.75-6.05L3.75-6.05Q4.3-11.75 4.3-17.75L4.3-17.75Q4.3-23.35 3.95-28.3L3.95-28.3Q4-29 4.67-29.9 5.35-30.8 6.4-30.9L6.4-30.9Q7.55-30.9 10.05-31.3L10.05-31.3Q12.65-31.7 14-31.7L14-31.7Q18.1-31.7 20.38-30.9 22.65-30.1 24.95-28.25L24.95-28.25Q27.45-24.35 27.45-22.75L27.45-22.75Q27.45-19.4 26.1-16.8 24.75-14.2 22.15-12.75 19.55-11.3 15.95-11.3L15.95-11.3ZM14.8-27.45Q13.2-27.45 12.03-27.28 10.85-27.1 9.2-26.7L9.2-26.7Q9.4-22.1 9.4-20L9.4-20Q9.4-17.85 9.25-16.4L9.25-16.4Q11.4-15.95 12.65-15.83 13.9-15.7 15.45-15.7L15.45-15.7Q19.15-15.7 20.68-17.63 22.2-19.55 22.2-22.1L22.2-22.1Q22.2-22.85 21.75-23.95 21.3-25.05 20.95-25.4L20.95-25.4Q19.6-26.6 18.32-27.03 17.05-27.45 14.8-27.45L14.8-27.45ZM53.95-2.4Q53.95-1.3 52.77-0.55 51.6 0.2 50.6 0.2L50.6 0.2Q48.7 0.2 47.57-0.28 46.45-0.75 45.5-2.05L45.5-2.05Q44.2-0.9 41.95-0.33 39.7 0.25 37.8 0.25L37.8 0.25Q34.7 0.25 32.7-1.43 30.7-3.1 30.7-6.35L30.7-6.35Q30.7-7.75 31.45-8.93 32.2-10.1 33.5-11L33.5-11Q34.95-11.95 36.8-12.48 38.65-13 40.65-13L40.65-13Q41.7-13 43.15-12.6 44.6-12.2 45.4-11.75L45.4-11.75 45.4-12.55Q45.4-15.25 44.1-16.28 42.8-17.3 39.9-17.3L39.9-17.3Q39.05-17.3 38.22-16.95 37.4-16.6 36.35-16L36.35-16Q34.95-15.25 33.7-15.25L33.7-15.25Q33.25-15.25 32.85-15.88 32.45-16.5 32.45-17L32.45-17Q32.45-18.45 33.82-19.5 35.2-20.55 37.1-21.08 39-21.6 40.5-21.6L40.5-21.6Q42-21.6 43.95-21.03 45.9-20.45 47.15-19.45L47.15-19.45Q48.65-18.15 49.47-16.43 50.3-14.7 50.3-12.65L50.3-12.65Q50.3-12 50.2-10.7L50.2-10.7Q50.1-9.3 50.1-8.3L50.1-8.3Q50.1-7.85 50-6.95L50-6.95Q49.9-5.85 49.9-5.2L49.9-5.2Q49.9-4.6 50.35-4.17 50.8-3.75 51.4-3.75L51.4-3.75 52.8-3.8Q53.35-3.8 53.65-3.4 53.95-3 53.95-2.4L53.95-2.4ZM37.85-3.7Q40-3.7 41.45-4.15 42.9-4.6 44.95-5.8L44.95-5.8Q45.15-6.65 45.2-8.05L45.2-8.05Q42.45-9.35 40.65-9.35L40.65-9.35Q38.6-9.35 37-8.6 35.4-7.85 35.4-5.95L35.4-5.95Q35.4-5 36.2-4.35 37-3.7 37.85-3.7L37.85-3.7ZM80.34-11.9Q80.64-13 81-14.9L81-14.9Q81.5-17.15 81.8-18.3 82.09-19.45 82.59-20.25L82.59-20.25Q83.14-21.15 83.57-21.45 84-21.75 84.5-21.75L84.5-21.75Q87.09-21.75 87.09-19.75L87.09-19.75Q87.09-18.75 86.3-16L86.3-16Q83.64-8 82.5-3.6L82.5-3.6Q82-1.75 81-0.78 80 0.2 78.3 0.2L78.3 0.2Q77.44 0.2 76.57-0.63 75.69-1.45 75.14-2.65L75.14-2.65 74.59-4Q73.19-7.55 72.52-9.47 71.84-11.4 71.64-12.95L71.64-12.95 71.19-11.35Q70-7.05 68.69-3.35L68.69-3.35Q68.05-1.45 67.09-0.63 66.14 0.2 64.64 0.2L64.64 0.2Q63.74 0.2 63.07-0.2 62.39-0.6 61.8-1.55L61.8-1.55Q60.99-2.85 60.27-5.05 59.55-7.25 58.2-11.9L58.2-11.9Q57.55-13.9 56.99-16.13 56.45-18.35 56.45-19.25L56.45-19.25Q56.45-20.3 56.99-20.9 57.55-21.5 58.59-21.5L58.59-21.5Q59.95-21.5 60.49-20.98 61.05-20.45 61.49-19.4L61.49-19.4Q61.74-17.6 62.59-14.3L62.59-14.3 63.7-9.6Q63.8-9.05 64.3-7.3L64.3-7.3 64.69-5.85Q65.8-8.2 66.55-10.35 67.3-12.5 68.19-15.65L68.19-15.65Q68.25-15.85 69.19-19.1L69.19-19.1Q69.84-20.15 70.34-20.68 70.84-21.2 71.34-21.2L71.34-21.2Q72.34-21.2 73.07-20.58 73.8-19.95 74.14-19.05L74.14-19.05Q74.75-17.1 75.19-15.5L75.19-15.5Q75.39-14.85 76.12-12.38 76.84-9.9 77.44-8.2 78.05-6.5 78.44-5.8L78.44-5.8 80.34-11.9Z" fill="#f3fa3a" data-fill-palette-color="primary"></path><path d="M113.49-0.75Q112.84-1.6 112.39-2.63 111.94-3.65 111.44-5.1L111.44-5.1Q111.34-5.35 110.87-6.6 110.39-7.85 109.79-8.75L109.79-8.75Q106.64-8.3 104.64-8.3L104.64-8.3Q103.54-8.3 102.22-8.38 100.89-8.45 100.24-8.45L100.24-8.45Q97.74-8.65 96.24-8.65L96.24-8.65Q95.64-7.85 95.22-6.95 94.79-6.05 94.14-4.25L94.14-4.25Q93.24-1.65 92.59-0.55L92.59-0.55Q92.14 0.2 90.84 0.2L90.84 0.2Q89.74 0.2 88.82-0.28 87.89-0.75 87.89-1.6L87.89-1.6Q88.29-3.5 89.17-5.63 90.04-7.75 91.69-11.3L91.69-11.3 93.69-16.2Q95.34-20.4 96.72-23.4 98.09-26.4 100.34-30.5L100.34-30.5Q100.64-31.1 101.34-31.53 102.04-31.95 102.89-31.95L102.89-31.95Q103.84-31.95 104.27-31.83 104.69-31.7 104.94-31.43 105.19-31.15 105.69-30.3L105.69-30.3Q107.39-27.65 108.62-24.85 109.84-22.05 111.74-17.1L111.74-17.1 112.79-14.45Q114.19-10.85 115.22-8.43 116.24-6 117.49-4L117.49-4Q118.29-2.7 118.29-2.2L118.29-2.2Q118.29-1 117.57-0.38 116.84 0.25 115.69 0.25L115.69 0.25Q114.24 0.25 113.49-0.75L113.49-0.75ZM108.34-12.85Q107.54-14.55 106.04-18.75L106.04-18.75Q104.49-23.25 102.94-25.9L102.94-25.9Q101.99-23.5 100.14-19.7L100.14-19.7Q98.89-17.35 97.29-12.9L97.29-12.9Q100.49-12.5 104.19-12.5L104.19-12.5Q106.84-12.5 108.34-12.85L108.34-12.85ZM127.34-7.75Q127.34-5.85 127.91-4.83 128.49-3.8 129.39-3.8L129.39-3.8Q129.89-3.8 130.34-3.88 130.79-3.95 131.24-3.95L131.24-3.95Q131.74-3.95 132.11-3.45 132.49-2.95 132.49-2.35L132.49-2.35Q132.49-1.15 131.36-0.48 130.24 0.2 128.34 0.2L128.34 0.2Q126.99 0.2 125.61-0.63 124.24-1.45 123.34-3.23 122.44-5 122.44-7.65L122.44-7.65Q122.44-13.35 122.64-17.3L122.64-17.3Q122.89-22 122.89-29.15L122.89-29.15Q122.89-31.4 123.14-32.3L123.14-32.3Q123.44-33 124.11-33.38 124.79-33.75 125.54-33.75L125.54-33.75Q126.29-33.75 126.86-33.5 127.44-33.25 127.64-32.7L127.64-32.7Q127.84-32.1 127.91-31.53 127.99-30.95 127.99-29.9L127.99-29.9Q127.99-27.85 127.84-25.95L127.84-25.95Q127.74-23.65 127.74-22.6L127.74-22.6Q127.34-13.8 127.34-7.75L127.34-7.75ZM137.09-9Q137.09-11.8 137.14-13.25L137.14-13.25 137.19-18Q137.19-20.9 137.04-24.35L137.04-24.35Q136.99-25.4 136.69-27.25L136.69-27.25Q136.29-30.05 136.29-31.45L136.29-31.45Q136.29-33.75 138.59-33.75L138.59-33.75Q140.04-33.75 140.66-32.98 141.29-32.2 141.54-30.55L141.54-30.55Q142.04-27.1 142.04-22.45L142.04-22.45Q142.04-21.05 141.94-18.25L141.94-18.25Q142.89-19.75 144.41-20.6 145.94-21.45 147.44-21.45L147.44-21.45Q151.79-21.45 154.93-17.85L154.93-17.85Q155.79-16.6 156.46-14.88 157.14-13.15 157.14-11.9L157.14-11.9Q157.14-9.7 156.66-7.85 156.18-6 154.99-4.25L154.99-4.25Q153.79-2.5 151.96-1.4 150.14-0.3 147.74-0.3L147.74-0.3Q145.64-0.3 143.96-1.15 142.29-2 141.29-3.4L141.29-3.4Q141.04-2.15 140.19-0.93 139.34 0.3 138.24 0.3L138.24 0.3Q137.34 0.3 136.74-0.18 136.14-0.65 136.14-1.6L136.14-1.6Q136.14-2.3 136.44-3.35L136.44-3.35Q136.74-4.8 136.91-6.03 137.09-7.25 137.09-9L137.09-9ZM146.49-4.45Q148.94-4.45 150.59-6.18 152.24-7.9 152.24-10.85L152.24-10.85Q152.24-13.55 150.79-15.5L150.79-15.5Q150.29-16.15 149.36-16.55 148.44-16.95 147.54-16.95L147.54-16.95Q145.44-16.95 143.99-15.73 142.54-14.5 142.34-12.35L142.34-12.35Q142.14-9.45 142.14-7.35L142.14-7.35Q142.74-6.2 143.96-5.33 145.19-4.45 146.49-4.45L146.49-4.45ZM164.43-32.1Q166.18-31.95 167.48-31.18 168.78-30.4 168.78-28.85L168.78-28.85Q168.78-27.7 167.71-27.03 166.63-26.35 165.13-26.35L165.13-26.35Q163.68-26.35 163.13-27.1 162.58-27.85 162.58-28.65L162.58-28.65Q162.58-30.15 162.91-31.15 163.23-32.15 164.43-32.1L164.43-32.1ZM168.43-18.95L168.43-9.95 168.43-8.5Q168.43-6.55 168.56-4.83 168.68-3.1 168.88-1.35L168.88-1.35Q168.83-0.85 168.13-0.33 167.43 0.2 166.88 0.2L166.88 0.2Q165.93 0.2 164.96-0.18 163.98-0.55 163.78-1.1L163.78-1.1Q163.48-2.7 163.48-3.95L163.48-3.95Q163.48-8.05 163.23-13.15L163.23-13.15Q163.03-17.65 163.03-19.45L163.03-19.45Q163.03-20.35 163.93-21 164.83-21.65 165.83-21.65L165.83-21.65Q167.28-21.65 167.86-21 168.43-20.35 168.43-18.95L168.43-18.95Z" fill="#ff6d98" data-fill-palette-color="secondary"></path></g></svg></g></svg></g><g transform="matrix(1,0,0,1,75.54432,99.71128567029649)"><svg viewBox="0 0 244.43135999999998 24.54689220952791" height="24.54689220952791" width="244.43135999999998"><g transform="matrix(1,0,0,1,8,0)"><svg width="228.43135999999998" viewBox="1.15 -38.85 468.93 49.85" height="24.54689220952791" data-palette-color="#ff6d98"><g class="undefined-text-1" data-fill-palette-color="secondary" id="text-1"><path d="M7.35 5.55L1.15 5.55 13.65-38.85 19.9-38.85 7.35 5.55ZM36.1-18L31.5-18 32.45-25.05 26.85-20.65 24.45-24.9 31-27.5 24.5-30 26.75-34.05 32.5-29.7 31.5-36.85 36.15-36.85 35.15-29.7 40.85-34.05 43.05-30.05 36.55-27.45 43.1-24.85 40.75-20.7 35.15-25.05 36.1-18Z" fill="#f3fa3a" data-fill-palette-color="primary"></path><path d="M61.15 0L53.6 0 44.35-35 51.2-35 57.5-7.15 64.9-35 71.95-35 79.15-7.15 85.45-35 92.35-35 82.85 0 75.25 0 68.3-25.95 61.15 0ZM108.9 0.6L108.9 0.6Q105.15 0.6 102.25-1 99.35-2.6 97.7-5.5 96.05-8.4 96.05-12.2L96.05-12.2Q96.05-16.05 97.67-19.05 99.3-22.05 102.17-23.73 105.05-25.4 108.95-25.4L108.95-25.4Q112.6-25.4 115.4-23.8 118.2-22.2 119.77-19.43 121.35-16.65 121.35-13.25L121.35-13.25Q121.35-12.7 121.32-12.1 121.3-11.5 121.25-10.85L121.25-10.85 102.4-10.85Q102.6-7.95 104.42-6.3 106.25-4.65 108.85-4.65L108.85-4.65Q110.8-4.65 112.12-5.53 113.45-6.4 114.1-7.8L114.1-7.8 120.6-7.8Q119.9-5.45 118.27-3.53 116.65-1.6 114.27-0.5 111.9 0.6 108.9 0.6ZM108.95-20.2L108.95-20.2Q106.6-20.2 104.8-18.88 103-17.55 102.5-14.85L102.5-14.85 114.85-14.85Q114.7-17.3 113.05-18.75 111.4-20.2 108.95-20.2ZM141.45 0.6L141.45 0.6Q138.65 0.6 136.55-0.45 134.45-1.5 133.15-3.4L133.15-3.4 132.45 0 126.75 0 126.75-36 133.15-36 133.15-21.25Q134.35-22.9 136.32-24.15 138.3-25.4 141.45-25.4L141.45-25.4Q144.95-25.4 147.7-23.7 150.45-22 152.05-19.05 153.65-16.1 153.65-12.35L153.65-12.35Q153.65-8.6 152.05-5.68 150.45-2.75 147.7-1.07 144.95 0.6 141.45 0.6ZM140.1-5L140.1-5Q143.15-5 145.15-7.05 147.15-9.1 147.15-12.35L147.15-12.35Q147.15-15.6 145.15-17.7 143.15-19.8 140.1-19.8L140.1-19.8Q137-19.8 135.02-17.73 133.05-15.65 133.05-12.4L133.05-12.4Q133.05-9.15 135.02-7.08 137-5 140.1-5Z" fill="#ff6d98" data-fill-palette-color="secondary"></path><path d="M192.79 0L180.85 0 180.85-35 192.79-35Q198.95-35 202.92-32.83 206.9-30.65 208.82-26.73 210.74-22.8 210.74-17.5L210.74-17.5Q210.74-12.2 208.82-8.28 206.9-4.35 202.92-2.18 198.95 0 192.79 0L192.79 0ZM187.24-29.55L187.24-5.5 192.49-5.5Q196.9-5.5 199.45-6.93 201.99-8.35 203.1-11.03 204.2-13.7 204.2-17.5L204.2-17.5Q204.2-21.25 203.1-23.95 201.99-26.65 199.45-28.1 196.9-29.55 192.49-29.55L192.49-29.55 187.24-29.55ZM228.29 0.6L228.29 0.6Q224.54 0.6 221.64-1 218.74-2.6 217.09-5.5 215.44-8.4 215.44-12.2L215.44-12.2Q215.44-16.05 217.07-19.05 218.69-22.05 221.57-23.73 224.44-25.4 228.34-25.4L228.34-25.4Q231.99-25.4 234.79-23.8 237.59-22.2 239.17-19.43 240.74-16.65 240.74-13.25L240.74-13.25Q240.74-12.7 240.72-12.1 240.69-11.5 240.64-10.85L240.64-10.85 221.79-10.85Q221.99-7.95 223.82-6.3 225.64-4.65 228.24-4.65L228.24-4.65Q230.19-4.65 231.52-5.53 232.84-6.4 233.49-7.8L233.49-7.8 239.99-7.8Q239.29-5.45 237.67-3.53 236.04-1.6 233.67-0.5 231.29 0.6 228.29 0.6ZM228.34-20.2L228.34-20.2Q225.99-20.2 224.19-18.88 222.39-17.55 221.89-14.85L221.89-14.85 234.24-14.85Q234.09-17.3 232.44-18.75 230.79-20.2 228.34-20.2ZM260.59 0L252.84 0 243.74-24.8 250.44-24.8 256.74-6.05 263.04-24.8 269.74-24.8 260.59 0ZM285.84 0.6L285.84 0.6Q282.09 0.6 279.19-1 276.29-2.6 274.64-5.5 272.99-8.4 272.99-12.2L272.99-12.2Q272.99-16.05 274.61-19.05 276.24-22.05 279.11-23.73 281.99-25.4 285.89-25.4L285.89-25.4Q289.54-25.4 292.34-23.8 295.14-22.2 296.71-19.43 298.29-16.65 298.29-13.25L298.29-13.25Q298.29-12.7 298.26-12.1 298.24-11.5 298.19-10.85L298.19-10.85 279.34-10.85Q279.54-7.95 281.36-6.3 283.19-4.65 285.79-4.65L285.79-4.65Q287.74-4.65 289.06-5.53 290.39-6.4 291.04-7.8L291.04-7.8 297.54-7.8Q296.84-5.45 295.21-3.53 293.59-1.6 291.21-0.5 288.84 0.6 285.84 0.6ZM285.89-20.2L285.89-20.2Q283.54-20.2 281.74-18.88 279.94-17.55 279.44-14.85L279.44-14.85 291.79-14.85Q291.64-17.3 289.99-18.75 288.34-20.2 285.89-20.2ZM310.09 0L303.69 0 303.69-36 310.09-36 310.09 0ZM328.53 0.6L328.53 0.6Q324.93 0.6 322.06-1.05 319.18-2.7 317.51-5.63 315.83-8.55 315.83-12.4L315.83-12.4Q315.83-16.25 317.53-19.18 319.23-22.1 322.11-23.75 324.98-25.4 328.58-25.4L328.58-25.4Q332.13-25.4 335.01-23.75 337.88-22.1 339.56-19.18 341.23-16.25 341.23-12.4L341.23-12.4Q341.23-8.55 339.56-5.63 337.88-2.7 334.98-1.05 332.08 0.6 328.53 0.6ZM328.53-4.95L328.53-4.95Q331.03-4.95 332.88-6.83 334.73-8.7 334.73-12.4L334.73-12.4Q334.73-16.1 332.88-17.98 331.03-19.85 328.58-19.85L328.58-19.85Q326.03-19.85 324.21-17.98 322.38-16.1 322.38-12.4L322.38-12.4Q322.38-8.7 324.21-6.83 326.03-4.95 328.53-4.95ZM353.33 11L346.93 11 346.93-24.8 352.63-24.8 353.33-21.25Q354.53-22.9 356.51-24.15 358.48-25.4 361.63-25.4L361.63-25.4Q365.13-25.4 367.88-23.7 370.63-22 372.23-19.05 373.83-16.1 373.83-12.35L373.83-12.35Q373.83-8.6 372.23-5.68 370.63-2.75 367.88-1.07 365.13 0.6 361.63 0.6L361.63 0.6Q358.83 0.6 356.73-0.45 354.63-1.5 353.33-3.4L353.33-3.4 353.33 11ZM360.28-5L360.28-5Q363.33-5 365.33-7.05 367.33-9.1 367.33-12.35L367.33-12.35Q367.33-15.6 365.33-17.7 363.33-19.8 360.28-19.8L360.28-19.8Q357.18-19.8 355.21-17.73 353.23-15.65 353.23-12.4L353.23-12.4Q353.23-9.15 355.21-7.08 357.18-5 360.28-5ZM391.58 0.6L391.58 0.6Q387.83 0.6 384.93-1 382.03-2.6 380.38-5.5 378.73-8.4 378.73-12.2L378.73-12.2Q378.73-16.05 380.35-19.05 381.98-22.05 384.85-23.73 387.73-25.4 391.63-25.4L391.63-25.4Q395.28-25.4 398.08-23.8 400.88-22.2 402.45-19.43 404.03-16.65 404.03-13.25L404.03-13.25Q404.03-12.7 404-12.1 403.98-11.5 403.93-10.85L403.93-10.85 385.08-10.85Q385.28-7.95 387.1-6.3 388.93-4.65 391.53-4.65L391.53-4.65Q393.48-4.65 394.8-5.53 396.13-6.4 396.78-7.8L396.78-7.8 403.28-7.8Q402.58-5.45 400.95-3.53 399.33-1.6 396.95-0.5 394.58 0.6 391.58 0.6ZM391.63-20.2L391.63-20.2Q389.28-20.2 387.48-18.88 385.68-17.55 385.18-14.85L385.18-14.85 397.53-14.85Q397.38-17.3 395.73-18.75 394.08-20.2 391.63-20.2ZM415.83 0L409.43 0 409.43-24.8 415.13-24.8 415.73-20.15Q417.08-22.55 419.4-23.98 421.73-25.4 424.88-25.4L424.88-25.4 424.88-18.65 423.08-18.65Q420.98-18.65 419.33-18 417.68-17.35 416.75-15.75 415.83-14.15 415.83-11.3L415.83-11.3 415.83 0Z" fill="#f3fa3a" data-fill-palette-color="primary"></path><path d="M439.93-18L435.33-18 436.28-25.05 430.68-20.65 428.28-24.9 434.83-27.5 428.33-30 430.58-34.05 436.33-29.7 435.33-36.85 439.98-36.85 438.98-29.7 444.68-34.05 446.88-30.05 440.38-27.45 446.93-24.85 444.58-20.7 438.98-25.05 439.93-18ZM457.53 5.55L451.33 5.55 463.83-38.85 470.08-38.85 457.53 5.55Z" fill="#ff6d98" data-fill-palette-color="secondary"></path></g></svg></g></svg></g></svg></g></svg></g><g transform="matrix(1,0,0,1,27.555775340948856,0)"><svg viewBox="0 0 340.40844931810227 340.40844931810227" height="340.40844931810227" width="340.40844931810227"><g><svg></svg></g><g id="icon-0"><svg viewBox="0 0 340.40844931810227 340.40844931810227" height="340.40844931810227" width="340.40844931810227"><g><path d="M0 170.204c0-94.001 76.203-170.204 170.204-170.204 94.001 0 170.204 76.203 170.204 170.204 0 94.001-76.203 170.204-170.204 170.204-94.001 0-170.204-76.203-170.204-170.204zM170.204 333.134c89.984 0 162.93-72.946 162.93-162.93 0-89.984-72.946-162.93-162.93-162.929-89.984 0-162.93 72.946-162.929 162.929 0 89.984 72.946 162.93 162.929 162.93z" data-fill-palette-color="tertiary" fill="#f3fa3a" stroke="transparent"></path></g><g transform="matrix(1,0,0,1,72.24770125696041,92.04742407227661)"><svg viewBox="0 0 195.91304680418145 156.31360117354905" height="156.31360117354905" width="195.91304680418145"><g><svg xmlns="http://www.w3.org/2000/svg" xmlns:xlink="http://www.w3.org/1999/xlink" version="1.1" x="0" y="0" viewBox="1 13 94 75" enable-background="new 0 0 96 96" xml:space="preserve" height="156.31360117354905" width="195.91304680418145" class="icon-g$-0" data-fill-palette-color="accent" id="g$-0"><g fill="#ff6d98" data-fill-palette-color="accent"><path fill="#ff6d98" d="M90 82h-4v-2h4c1.654 0 3-1.346 3-3V18c0-1.654-1.346-3-3-3H6c-1.654 0-3 1.346-3 3v59c0 1.654 1.346 3 3 3h46v2H6c-2.757 0-5-2.243-5-5V18c0-2.757 2.243-5 5-5h84c2.757 0 5 2.243 5 5v59C95 79.757 92.757 82 90 82z" data-fill-palette-color="accent"></path></g><g fill="#ff6d98" data-fill-palette-color="accent"><rect x="2" y="26" fill="#ff6d98" width="91" height="2" data-fill-palette-color="accent"></rect></g><g fill="#ff6d98" data-fill-palette-color="accent"><path fill="#ff6d98" d="M10.5 22C9.673 22 9 21.327 9 20.5S9.673 19 10.5 19s1.5 0.673 1.5 1.5S11.327 22 10.5 22zM10.5 20c-0.276 0-0.5 0.224-0.5 0.5s0.224 0.5 0.5 0.5 0.5-0.224 0.5-0.5S10.776 20 10.5 20z" data-fill-palette-color="accent"></path></g><g fill="#ff6d98" data-fill-palette-color="accent"><path fill="#ff6d98" d="M17.5 22c-0.827 0-1.5-0.673-1.5-1.5s0.673-1.5 1.5-1.5 1.5 0.673 1.5 1.5S18.327 22 17.5 22zM17.5 20c-0.276 0-0.5 0.224-0.5 0.5s0.224 0.5 0.5 0.5 0.5-0.224 0.5-0.5S17.776 20 17.5 20z" data-fill-palette-color="accent"></path></g><g fill="#ff6d98" data-fill-palette-color="accent"><path fill="#ff6d98" d="M24.5 22c-0.827 0-1.5-0.673-1.5-1.5s0.673-1.5 1.5-1.5 1.5 0.673 1.5 1.5S25.327 22 24.5 22zM24.5 20c-0.276 0-0.5 0.224-0.5 0.5s0.224 0.5 0.5 0.5 0.5-0.224 0.5-0.5S24.776 20 24.5 20z" data-fill-palette-color="accent"></path></g><g fill="#ff6d98" data-fill-palette-color="accent"><g fill="#ff6d98" data-fill-palette-color="accent"><path fill="#ff6d98" d="M77 88H61c-2.757 0-5-2.243-5-5V48c0-2.757 2.243-5 5-5h16c2.757 0 5 2.243 5 5v35C82 85.757 79.757 88 77 88zM61 45c-1.654 0-3 1.346-3 3v35c0 1.654 1.346 3 3 3h16c1.654 0 3-1.346 3-3V48c0-1.654-1.346-3-3-3H61z" data-fill-palette-color="accent"></path></g><g fill="#ff6d98" data-fill-palette-color="accent"><path fill="#ff6d98" d="M81 53H57c-0.552 0-1-0.448-1-1s0.448-1 1-1h24c0.552 0 1 0.448 1 1S81.552 53 81 53z" data-fill-palette-color="accent"></path></g><g fill="#ff6d98" data-fill-palette-color="accent"><path fill="#ff6d98" d="M81 80H57c-0.552 0-1-0.448-1-1s0.448-1 1-1h24c0.552 0 1 0.448 1 1S81.552 80 81 80z" data-fill-palette-color="accent"></path></g></g></svg></g></svg></g></svg></g></svg></g><g></g></svg></g><defs></defs></svg><rect width="194.47392701713082" height="247.2" fill="none" stroke="none" visibility="hidden"></rect></g></svg></g></svg>